<?xml version="1.0" encoding="UTF-8" standalone="no"?>
<!-- Created with Inkscape (http://www.inkscape.org/) -->

<svg
   width="1000"
   height="1000"
   viewBox="0 0 264.58333 264.58333"
   version="1.1"
   id="svg5"
   xmlns:xlink="http://www.w3.org/1999/xlink"
   xmlns="http://www.w3.org/2000/svg"
   xmlns:svg="http://www.w3.org/2000/svg">
  <defs
     id="defs2">
    <linearGradient
       id="linearGradient994">
      <stop
         style="stop-color:#3254ff;stop-opacity:1;"
         offset="0"
         id="stop990" />
      <stop
         style="stop-color:#d732ff;stop-opacity:1;"
         offset="1"
         id="stop992" />
    </linearGradient>
    <linearGradient
       xlink:href="#linearGradient994"
       id="linearGradient996"
       x1="78.025429"
       y1="21.058165"
       x2="93.139671"
       y2="243.17892"
       gradientUnits="userSpaceOnUse"
       gradientTransform="matrix(1,0,0,1.08266,60.069803,-9.0592155)" />
  </defs>
  <g
     id="layer1">
    <g
       id="g1368"
       transform="translate(0.16791747,-0.1414974)">
      <path
         id="path364"
         style="fill:url(#linearGradient996);fill-opacity:1;fill-rule:evenodd;stroke-width:13.2292;stroke-linecap:square;stroke-linejoin:bevel"
         d="m 257.0211,115.60953 c -1.39936,83.56957 -94.18697,142.33519 -94.18697,142.33519 0,0 0.0866,-37.84721 -31.66051,-46.96018 C 80.702061,196.49673 7.2138679,166.14866 7.2138709,110.84078 7.2138709,55.53292 62.71254,10.697033 131.17362,10.697032 c 68.46109,-10e-7 126.8422,45.508296 125.84748,104.912498 z" />
      <path
         id="path1226"
         style="fill:#ffffff;fill-rule:evenodd;stroke-width:13.2292;stroke-linecap:square;stroke-linejoin:bevel"
         d="m 194.06571,198.11872 a 9.7531776,9.7531776 0 0 1 -9.75318,9.75318 9.7531776,9.7531776 0 0 1 -9.75317,-9.75318 9.7531776,9.7531776 0 0 1 9.75317,-9.75318 9.7531776,9.7531776 0 0 1 9.75318,9.75318 z" />
      <path
         id="circle1228"
         style="fill:#ffffff;fill-rule:evenodd;stroke-width:13.2292;stroke-linecap:square;stroke-linejoin:bevel"
         d="M 88.18134,148.61404 A 12.270126,12.270126 0 0 1 75.911214,160.88417 12.270126,12.270126 0 0 1 63.641088,148.61404 12.270126,12.270126 0 0 1 75.911214,136.34391 12.270126,12.270126 0 0 1 88.18134,148.61404 Z" />
      <path
         id="circle1230"
         style="fill:#ffffff;fill-rule:evenodd;stroke-width:13.2292;stroke-linecap:square;stroke-linejoin:bevel"
         d="m 97.805511,46.362314 a 6.6069913,6.6069913 0 0 1 -6.606991,6.606992 6.6069913,6.6069913 0 0 1 -6.606992,-6.606992 6.6069913,6.6069913 0 0 1 6.606992,-6.606991 6.6069913,6.6069913 0 0 1 6.606991,6.606991 z" />
      <path
         style="color:#000000;fill:#ffffff;fill-rule:evenodd;stroke-linecap:square;stroke-linejoin:bevel;-inkscape-stroke:none"
         d="m 186.00496,136.95421 c -6.46893,0 -11.76954,5.30061 -11.76954,11.76953 1e-5,6.46893 5.30061,11.76954 11.76954,11.76954 6.46892,0 11.76953,-5.30061 11.76953,-11.76954 0,-6.46892 -5.30061,-11.76953 -11.76953,-11.76953 z m 0,5.29101 c 3.60909,0 6.47851,2.86943 6.47851,6.47852 0,3.60909 -2.86942,6.47852 -6.47851,6.47852 -3.6091,0 -6.47852,-2.86943 -6.47852,-6.47852 0,-3.60909 2.86942,-6.47852 6.47852,-6.47852 z"
         id="circle1232" />
      <path
         style="color:#000000;fill:#ffffff;fill-rule:evenodd;stroke-linecap:square;stroke-linejoin:bevel;-inkscape-stroke:none"
         d="m 129.67852,85.043827 c -7.87892,0 -14.34961,6.472647 -14.34961,14.351567 0,7.878906 6.47069,14.351556 14.34961,14.351556 7.87891,0 14.35156,-6.47265 14.35156,-14.351556 0,-7.87892 -6.47265,-14.351567 -14.35156,-14.351567 z m 0,7.937497 c 3.58917,0 6.41406,2.82489 6.41406,6.41407 0,3.589166 -2.82489,6.414056 -6.41406,6.414056 -3.58918,0 -6.41211,-2.82489 -6.41211,-6.414056 0,-3.58918 2.82293,-6.41407 6.41211,-6.41407 z"
         id="circle1234" />
      <path
         style="color:#000000;fill:#ffffff;fill-rule:evenodd;stroke-linecap:square;stroke-linejoin:bevel;-inkscape-stroke:none"
         d="m 158.67971,43.966853 c -5.41641,0 -9.84961,4.433202 -9.84961,9.84961 0,5.416406 4.4332,9.849609 9.84961,9.849609 5.41641,10e-7 9.84961,-4.433202 9.84961,-9.849609 0,-5.416408 -4.4332,-9.849611 -9.84961,-9.84961 z m 0,3.96875 c 3.27154,-10e-7 5.88087,2.609322 5.88087,5.88086 0,3.271538 -2.60933,5.880859 -5.88087,5.880859 -3.27154,0 -5.88086,-2.609322 -5.88086,-5.880859 0,-3.271538 2.60932,-5.88086 5.88086,-5.88086 z"
         id="circle1236" />
      <path
         id="path1407"
         style="color:#000000;fill:#ffffff;stroke-width:3.96874;stroke-linecap:round;stroke-linejoin:round;-inkscape-stroke:none"
         d="m 134.50478,134.83475 a 1.988556,1.9805928 2.787915 0 0 -1.89084,1.11932 l -21.10207,43.77201 a 1.9883572,1.9803948 2.787915 0 0 0.93327,2.64222 1.9883572,1.9803948 2.787915 0 0 2.65204,-0.92863 l 6.84299,-14.19396 a 1.9883572,1.9803948 2.787915 0 0 0.54157,0.10697 l 20.82664,1.0144 a 1.9883572,1.9803948 2.787915 0 0 0.54828,-0.0537 l 5.43223,14.79135 a 1.9883572,1.9803948 2.787915 0 0 2.5523,1.18184 1.9883572,1.9803948 2.787915 0 0 1.18339,-2.53887 L 136.2747,136.13235 a 1.988556,1.9805928 2.787915 0 0 -1.76992,-1.2976 z m -0.34727,7.06934 8.24653,22.45445 -18.63452,-0.90744 z" />
      <path
         id="path1220"
         style="color:#000000;fill:#ffffff;stroke-linecap:round;stroke-linejoin:round;-inkscape-stroke:none"
         d="m 37.810493,114.4742 a 1.984375,1.984375 0 0 0 0.388607,-0.0124 l 37.517606,-4.89997 a 1.984375,1.984375 0 0 0 1.71049,-2.22467 1.984375,1.984375 0 0 0 -2.22467,-1.71049 L 58.411304,107.8193 53.338745,68.977235 a 1.984375,1.984375 0 0 0 -2.224671,-1.71049 1.984375,1.984375 0 0 0 -1.71049,2.224671 l 5.073076,38.842064 -16.791224,2.19264 a 1.984375,1.984375 0 0 0 -1.711007,2.22467 1.984375,1.984375 0 0 0 1.836064,1.72341 z" />
      <path
         id="path1234"
         style="color:#000000;fill:#ffffff;stroke-linecap:round;stroke-linejoin:round;-inkscape-stroke:none"
         d="m 214.62765,118.77828 a 1.9845734,1.9845734 0 0 0 1.80041,-1.61127 l 8.07393,-42.84958 a 1.9845734,1.9845734 0 0 0 -1.58285,-2.317688 l -27.4066,-5.164025 a 1.984375,1.984375 0 0 0 -2.31717,1.582849 1.984375,1.984375 0 0 0 1.58233,2.317171 l 25.45633,4.796605 -3.49798,18.565792 -25.45633,-4.79609 a 1.984375,1.984375 0 0 0 -2.31768,1.58233 1.984375,1.984375 0 0 0 1.58285,2.31769 l 25.45632,4.79661 -3.10575,16.483226 -25.45633,-4.79661 a 1.984375,1.984375 0 0 0 -2.31769,1.58285 1.984375,1.984375 0 0 0 1.58234,2.31717 l 27.40659,5.16403 a 1.9845734,1.9845734 0 0 0 0.51728,0.0289 z" />
    </g>
  </g>
</svg>
